<svg width="500" height="500" viewBox="0 0 500 500" fill="none" xmlns="http://www.w3.org/2000/svg">
<rect width="500" height="500" rx="250" fill="#FECB00"/>
<path fill-rule="evenodd" clip-rule="evenodd" d="M304.309 159.5C259.509 136.3 215.142 149.833 198.809 159.5C176.409 144.7 162.309 140 148.309 140C117.309 159.5 134.809 200.5 155.809 208.5L135.829 311.724C137.998 320.94 157.998 336.121 179.3 336.677L208.551 336.677C229.027 336.677 242.988 344.629 250.434 360.532C257.702 344.629 271.663 336.677 292.316 336.677H319.307C342.817 336.677 364.802 318.406 365.648 310.807L346.309 208.5C367.309 202 381.309 159.5 352.809 140C339.309 140 316.309 149.5 304.309 159.5ZM370.616 337.088C367.361 341.827 363.598 345.864 359.328 349.198C349.4 357.018 336.237 360.971 319.839 361.059H291.917C270.732 361.059 260.14 370.373 260.14 389H240.86C240.86 370.373 230.091 361.059 208.551 361.059H181.693C165.029 361.059 151.689 357.062 141.672 349.066C137.596 345.847 133.981 342.01 130.829 337.554L108 455.5C108 455.5 163 500 251.5 500C340 500 393 455.5 393 455.5L370.616 337.088ZM291.309 250C291.309 272.091 273.4 290 251.309 290C229.217 290 211.309 272.091 211.309 250C211.309 227.909 229.217 210 251.309 210C273.4 210 291.309 227.909 291.309 250Z" fill="#0F0F1B"/>
<path d="M270.309 230C270.309 219 231.309 218.5 231.309 230C231.309 235 243.309 245.28 250.809 245.28C258.309 245.28 270.309 236 270.309 230Z" fill="#0F0F1B"/>
</svg>
