<?xml version="1.0" encoding="utf-8"?>
<!-- Generator: Adobe Illustrator 24.3.0, SVG Export Plug-In . SVG Version: 6.00 Build 0)  -->
<svg version="1.1" id="Ebene_1" xmlns="http://www.w3.org/2000/svg" xmlns:xlink="http://www.w3.org/1999/xlink" x="0px" y="0px"
	 viewBox="0 0 500 500" style="enable-background:new 0 0 500 500;" xml:space="preserve">
<style type="text/css">
	.st0{fill:#FECB00;}
	.st1{fill-rule:evenodd;clip-rule:evenodd;fill:#0F0F1B;}
	.st2{fill:#0F0F1B;}
</style>
<path class="st0" d="M500,250c0,69-28,131.5-73.2,176.8c-10.4,10.4-21.7,19.9-33.9,28.4l-22.3-118c-3.3,4.7-7,8.8-11.3,12.1
	c-9.9,7.8-23.1,11.8-39.5,11.9h-27.9c-21.2,0-31.8,9.3-31.8,27.9h-19.3c0-18.6-10.8-27.9-32.3-27.9h-26.9c-16.7,0-30-4-40-12
	c-4.1-3.2-7.7-7.1-10.8-11.5L108,455.8c-12.5-8.6-24.1-18.3-34.7-29C28,381.5,0,319,0,250S28,118.5,73.2,73.2C118.5,28,181,0,250,0
	C388.1,0,500,111.9,500,250z"/>
<path class="st1" d="M352.8,140c-13.5,0-36.5,9.5-48.5,19.5c-44.8-23.2-89.2-9.7-105.5,0c-22.4-14.8-36.5-19.5-50.5-19.5
	c-31,19.5-13.5,60.5,7.5,68.5l-20,103.2c2.2,9.2,22.2,24.4,43.5,25h29.2c20.5,0,34.4,8,41.9,23.9c7.3-15.9,21.2-23.9,41.9-23.9h27
	c23.5,0,45.5-18.3,46.3-25.9l-19.3-102.3C367.3,202,381.3,159.5,352.8,140z M251.3,290c-22.1,0-40-17.9-40-40s17.9-40,40-40
	s40,17.9,40,40S273.4,290,251.3,290z"/>
<path class="st1" d="M392.9,455.1c-40.3,28.1-89.3,44.7-142.1,44.8c-0.3,0-0.5,0-0.8,0c-18.6,0-36.7-2-54.2-5.9
	c-32-7.1-61.8-20.3-87.9-38.3l22.9-118.2c3.1,4.5,6.8,8.3,10.8,11.5c10,8,23.4,12,40,12h26.9c21.5,0,32.3,9.3,32.3,27.9h19.3
	c0-18.6,10.6-27.9,31.8-27.9h27.9c16.4-0.1,29.6-4,39.5-11.9c4.3-3.3,8-7.4,11.3-12.1L392.9,455.1z"/>
<path class="st2" d="M270.3,230c0-11-39-11.5-39,0c0,5,12,15.3,19.5,15.3C258.3,245.3,270.3,236,270.3,230z"/>
</svg>
